<svg xmlns="http://www.w3.org/2000/svg" xmlns:xlink="http://www.w3.org/1999/xlink" width="57" height="70" viewBox="0 0 57 70">
    <defs>
        <path id="a" d="M51.505 3.09v29.82a3.09 3.09 0 0 1-3.09 3.09H3.09A3.09 3.09 0 0 1 0 32.91V3.09A3.09 3.09 0 0 1 3.09 0h45.324a3.09 3.09 0 0 1 3.091 3.09z"/>
    </defs>
    <g fill="none" fill-rule="evenodd">
        <g transform="translate(1 31)">
            <mask id="b" fill="#fff">
                <use xlink:href="#a"/>
            </mask>
            <use fill="#8DF387" xlink:href="#a"/>
            <path fill="#5EC6EC" d="M0 36V0l25.753 14.717zM51.505 36L25.753 14.682 51.505 0z" mask="url(#b)"/>
            <path fill="#85D9F7" d="M0 36l25.67-22.09L51.505 36z" mask="url(#b)"/>
            <path fill="#44B7E0" d="M28.34 19.367L51.505.083H0l22.9 19.27a4.239 4.239 0 0 0 5.44.014z" mask="url(#b)"/>
            <path stroke="#1A789B" stroke-width="2.3" d="M54.37 3.09v29.82a4.24 4.24 0 0 1-4.241 4.24H4.805a4.24 4.24 0 0 1-4.24-4.24V3.09a4.24 4.24 0 0 1 4.24-4.24H50.13a4.24 4.24 0 0 1 4.24 4.24z"/>
        </g>
        <g transform="translate(2)">
            <ellipse cx="28.252" cy="18.319" fill="#EF6561" rx="2.252" ry="2.319"/>
            <path fill="#EF6561" d="M13.116 9.77l3.703 3.588-4.233 1.54zM34.246 6L37.4 7.21l-1.246 3.248L33 9.248z"/>
            <path fill="#44B7E0" d="M18.562 2.26L21.073 0 23.4 2.585l-2.51 2.26z"/>
            <path fill="#43AE3C" fill-rule="nonzero" d="M43.327 17.555l1.287-1.608a2.877 2.877 0 0 1 1.959-1.067l.37-.038a4.077 4.077 0 0 0 3.298-2.368l.659-1.44-1.395-.663-.659 1.44a2.558 2.558 0 0 1-2.07 1.486l-.37.038a4.392 4.392 0 0 0-2.989 1.628l-1.287 1.608 1.197.984z"/>
            <path fill="#FC941A" fill-rule="nonzero" d="M6.757 19.106l-1.027 1.17-1.517-1.406a4.59 4.59 0 0 1-1.452-3.147l-.019-.381a2.641 2.641 0 0 0-1.359-2.198L0 12.39.72 11l1.384.754c1.272.693 2.094 2.023 2.165 3.503l.019.381c.038.791.38 1.533.952 2.062l1.517 1.406z"/>
        </g>
    </g>
</svg>
